<svg xmlns="http://www.w3.org/2000/svg" width="400" height="400" viewBox="0 0 400 400" version="1.1"><path d="M 185.500 4 C 184.400 4.473, 180.534 4.891, 176.910 4.930 C 173.285 4.968, 166.985 5.841, 162.910 6.868 C 158.834 7.896, 153.703 9.061, 151.508 9.459 C 149.312 9.856, 147.062 10.475, 146.508 10.834 C 145.953 11.193, 143.700 12.009, 141.500 12.647 C 136.353 14.139, 129.353 16.696, 125.349 18.545 C 123.616 19.345, 121.353 20, 120.321 20 C 119.289 20, 117.542 20.632, 116.438 21.405 C 115.335 22.179, 111.747 24.219, 108.466 25.939 C 101.518 29.582, 100.159 30.407, 94.049 34.685 C 91.547 36.437, 86.350 39.990, 82.500 42.581 C 74.381 48.044, 46.107 75.931, 43.512 81.035 C 42.543 82.941, 40.232 86.376, 38.375 88.668 C 36.519 90.961, 35 93.076, 35 93.368 C 35 93.661, 33.706 95.835, 32.125 98.200 C 22.908 111.985, 13.565 135.463, 8.490 157.593 C 0.821 191.038, 3.420 232.823, 15.047 263 C 16.212 266.025, 17.743 270.525, 18.448 273 C 20.658 280.759, 33.298 303.580, 39.183 310.437 C 39.685 311.022, 41.761 314.057, 43.798 317.182 C 49.608 326.099, 71.300 347.649, 82.399 355.531 C 99.148 367.425, 112.189 375.098, 121.028 378.260 C 123.487 379.140, 129.100 381.243, 133.500 382.932 C 143.461 386.757, 156.611 390.355, 169 392.644 C 180.467 394.762, 216.232 395.198, 225 393.325 C 228.025 392.679, 233.425 391.677, 237 391.098 C 244.104 389.948, 254.343 387.412, 257.500 386.021 C 258.600 385.536, 261.300 384.604, 263.500 383.949 C 265.700 383.294, 267.927 382.363, 268.450 381.879 C 268.972 381.396, 270.097 380.985, 270.950 380.966 C 271.802 380.947, 274.300 380.063, 276.500 379 C 278.700 377.937, 281.187 377.053, 282.027 377.034 C 282.868 377.015, 284.443 376.395, 285.527 375.656 C 287.211 374.509, 291.177 372.263, 301.515 366.603 C 302.623 365.996, 308.994 361.544, 315.672 356.710 C 328.428 347.475, 355.084 321.476, 356.543 316.847 C 356.950 315.556, 359.208 311.994, 361.561 308.931 C 366.696 302.245, 368.220 299.693, 375.385 285.781 C 378.422 279.886, 381.396 273.136, 381.995 270.781 C 382.594 268.427, 383.515 265.600, 384.043 264.500 C 385.383 261.707, 387.697 254.142, 390.620 243 C 393.129 233.435, 394.432 224.172, 395.627 207.399 C 396.295 198.031, 394.590 171.597, 392.860 164.500 C 392.324 162.300, 391.265 157.575, 390.508 154 C 389.751 150.425, 388.253 145.025, 387.181 142 C 386.108 138.975, 383.782 132.319, 382.012 127.209 C 378.671 117.563, 369.778 100.081, 365.119 94 C 363.645 92.075, 360.209 87.125, 357.484 83 C 351.825 74.432, 324.541 46.603, 318.757 43.500 C 316.707 42.400, 311.535 38.970, 307.265 35.878 C 296.046 27.755, 284.453 21.858, 268.369 16.092 C 250.646 9.739, 236.988 6.397, 221 4.501 C 207.422 2.890, 188.697 2.626, 185.500 4 M 201.006 43.173 C 196.603 52.141, 193 60.045, 193 60.739 C 193 61.475, 194.256 62, 196.016 62 C 198.479 62, 199.339 61.357, 200.701 58.500 C 202.513 54.701, 203.585 54.433, 212.238 55.619 C 216.437 56.195, 216.837 56.511, 217.918 60.119 C 218.968 63.627, 219.404 64, 222.441 64 L 225.802 64 222.947 54.750 C 214.329 26.827, 214.613 27.525, 211.708 27.184 C 209.146 26.884, 208.616 27.676, 201.006 43.173 M 240.023 35.691 C 238.018 36.734, 235.266 39.586, 233.523 42.426 C 230.955 46.611, 230.500 48.352, 230.503 54.003 C 230.507 64.795, 235.399 69.976, 245.601 69.994 C 249.679 70.002, 255.004 68.105, 254.985 66.652 C 254.944 63.555, 253.318 62.740, 249.615 63.962 C 241.510 66.637, 236 62.362, 236 53.400 C 236 48.903, 236.469 47.535, 239.001 44.651 C 243.731 39.265, 249.153 39.107, 254.841 44.192 C 257.467 46.539, 258.011 46.692, 259.098 45.382 C 260.765 43.373, 259.275 39.281, 255.986 36.833 C 252.229 34.037, 244.294 33.469, 240.023 35.691 M 144 36.729 C 141.470 37.692, 141.031 39.217, 141.015 47.096 C 141.007 51.274, 140.711 58.761, 140.358 63.734 L 139.716 72.775 135.108 70.045 C 130.698 67.433, 130.513 67.140, 130.810 63.224 C 131.350 56.100, 125.841 49, 119.774 49 C 117.149 49, 100.992 57.600, 101.005 58.989 C 101.008 59.270, 103.946 64, 107.536 69.500 C 111.125 75, 114.326 80.625, 114.650 82 C 114.973 83.375, 115.863 85.501, 116.626 86.725 C 117.831 88.658, 118.342 88.801, 120.507 87.815 C 123.644 86.385, 123.643 84.840, 120.500 80.215 C 117.249 75.431, 117.337 74.672, 121.388 72.490 L 124.776 70.666 129.772 74.333 C 135.496 78.535, 136.100 78.648, 139.790 76.210 C 141.281 75.225, 143.400 73.942, 144.500 73.359 C 145.811 72.663, 146.605 71.065, 146.806 68.717 C 147.101 65.267, 147.345 65.062, 153.515 63.069 C 161.679 60.431, 161.653 60.429, 163.526 64.051 C 164.794 66.502, 165.536 66.971, 167.302 66.438 C 171.207 65.260, 171.400 64.209, 168.404 60.433 C 166.807 58.421, 164.519 55.311, 163.320 53.522 C 160.138 48.772, 147.881 35.987, 146.598 36.079 C 145.994 36.122, 144.825 36.415, 144 36.729 M 207.706 42.528 C 206.218 45.562, 205 48.220, 205 48.434 C 205 49.343, 213.272 50.128, 214.101 49.299 C 214.959 48.441, 212.609 39.484, 211.073 37.756 C 210.709 37.346, 209.194 39.494, 207.706 42.528 M 147 52 C 147 56.145, 147.421 59, 148.032 59 C 150.399 59, 156 55.999, 156 54.731 C 156 53.115, 149.263 45, 147.922 45 C 147.415 45, 147 48.150, 147 52 M 270.915 56.433 C 265.187 61.071, 258.753 66.381, 256.619 68.232 L 252.737 71.598 255.268 73.256 C 257.693 74.845, 257.912 74.811, 260.451 72.457 C 261.910 71.106, 263.381 70, 263.721 70 C 264.888 70, 275.500 76.271, 276.218 77.385 C 276.613 77.998, 276.684 80.089, 276.375 82.031 C 275.889 85.092, 276.159 85.747, 278.406 86.950 C 279.831 87.712, 281.269 88.065, 281.601 87.732 C 281.933 87.400, 282.841 81.362, 283.619 74.314 C 284.397 67.266, 285.321 59.070, 285.672 56.100 C 286.211 51.545, 286.022 50.489, 284.464 49.350 C 283.449 48.608, 282.328 48, 281.974 48 C 281.619 48, 276.643 51.795, 270.915 56.433 M 113.250 57.115 C 109.351 59.612, 109.202 61.362, 112.477 66.180 C 115.218 70.215, 117.150 70.333, 122.250 66.780 C 125.721 64.361, 125.836 60.745, 122.545 57.455 C 119.560 54.469, 117.500 54.393, 113.250 57.115 M 274.500 61.073 C 271.750 63.343, 269.356 65.586, 269.181 66.057 C 268.845 66.960, 275.306 70, 277.561 70 C 278.959 70, 280.436 62.955, 279.840 59.130 C 279.521 57.079, 279.196 57.197, 274.500 61.073 M 294.716 76.572 C 288.547 82.937, 283.500 88.693, 283.500 89.364 C 283.500 90.034, 286.566 93.362, 290.314 96.758 C 299.474 105.059, 304.320 105.954, 312.017 100.767 C 317.790 96.877, 322 90.478, 322 85.594 C 322 80.314, 317.435 72.978, 311.849 69.281 C 309.732 67.880, 308 66.344, 308 65.867 C 308 63.539, 305.020 65.941, 294.716 76.572 M 179.250 70.689 C 180.213 70.941, 181.787 70.941, 182.750 70.689 C 183.713 70.438, 182.925 70.232, 181 70.232 C 179.075 70.232, 178.287 70.438, 179.250 70.689 M 217.269 70.693 C 218.242 70.947, 219.592 70.930, 220.269 70.656 C 220.946 70.382, 220.150 70.175, 218.500 70.195 C 216.850 70.215, 216.296 70.439, 217.269 70.693 M 84.459 72.880 C 71.493 78.769, 70.539 94.445, 82.587 103.634 C 85.843 106.117, 87.223 106.500, 92.922 106.500 C 98.213 106.500, 100.141 106.043, 102.773 104.166 C 106.735 101.339, 110.008 95.264, 109.978 90.790 C 109.928 83.260, 103.859 75.273, 96.110 72.539 C 90.596 70.593, 89.416 70.628, 84.459 72.880 M 298.818 81.053 C 294.793 85.483, 291.368 89.479, 291.206 89.935 C 291.045 90.390, 292.814 92.268, 295.137 94.109 C 301.598 99.226, 305.856 98.852, 311.711 92.656 C 315.905 88.217, 316.204 87.555, 315.701 83.808 C 315.150 79.698, 309.988 73, 307.372 73 C 306.692 73, 302.843 76.624, 298.818 81.053 M 179.500 77.490 C 163.644 79.988, 140.816 89.329, 127.438 98.792 C 119.212 104.612, 103.896 119.942, 97.919 128.338 C 93.358 134.746, 87.143 146.889, 83.250 157 C 79.228 167.448, 77.132 176.679, 75.873 189.500 C 73.765 210.958, 77.985 232.575, 88.579 254.578 C 94.792 267.482, 99.487 273.955, 111.524 286.208 C 123.389 298.286, 126.484 300.630, 140.055 307.816 C 160.781 318.789, 172.766 322.003, 195.500 322.682 C 210.282 323.124, 213.870 322.910, 223 321.040 C 234.521 318.681, 251.263 312.487, 258.465 307.920 C 260.998 306.314, 263.433 305, 263.878 305 C 266.069 305, 279.577 294.230, 287.254 286.362 C 298.926 274.399, 303.204 268.474, 309.532 255.500 C 319.974 234.091, 322.507 223.040, 322.478 199 C 322.454 179.158, 321.239 171.901, 315.500 157.326 C 305.945 133.060, 294.711 117.623, 275.117 101.840 C 267.016 95.314, 248.362 85.682, 235.752 81.513 C 220.075 76.331, 197.229 74.697, 179.500 77.490 M 83.700 80.573 C 80.100 84.173, 79.432 88.177, 81.670 92.741 C 85.473 100.498, 94.181 103.243, 99.850 98.473 C 103.579 95.335, 104.565 91.289, 102.693 86.807 C 99.188 78.418, 89.150 75.123, 83.700 80.573 M 330 95.163 C 328.075 96.790, 322.113 101.101, 316.750 104.743 C 310.910 108.708, 307 112.037, 307 113.044 C 307 113.969, 308.394 116.474, 310.098 118.612 C 311.801 120.751, 314.319 124.412, 315.693 126.750 C 318.467 131.471, 318.365 131.410, 321.066 129.965 C 323.796 128.503, 323.558 127.673, 318.586 121.339 C 316.158 118.246, 314.368 115.217, 314.608 114.608 C 314.848 113.998, 316.593 112.494, 318.486 111.264 L 321.929 109.028 326.214 114.458 C 330.648 120.076, 331.826 120.774, 333.706 118.894 C 334.514 118.086, 333.700 116.168, 330.685 111.776 L 326.559 105.763 329.530 103.387 C 331.163 102.080, 332.950 101.155, 333.500 101.331 C 334.050 101.507, 336.207 104.092, 338.294 107.075 C 342.375 112.912, 344.008 113.900, 345.869 111.657 C 346.826 110.505, 345.864 108.559, 340.893 101.591 C 337.504 96.839, 334.454 92.784, 334.116 92.578 C 333.777 92.372, 331.925 93.535, 330 95.163 M 60.442 99.376 C 60.046 100.954, 60.862 103.765, 62.876 107.755 C 64.543 111.058, 65.628 114.038, 65.287 114.380 C 64.946 114.721, 61.422 115, 57.456 115 C 52.050 115, 49.911 115.403, 48.910 116.608 C 46.454 119.567, 50.360 121.115, 59.454 120.787 L 67.423 120.500 70.241 127.453 C 71.790 131.277, 73.822 135.251, 74.756 136.282 C 76.411 138.112, 76.496 138.105, 78.205 135.995 C 80.104 133.650, 80.317 134.622, 75.434 123.375 L 74.077 120.249 77.789 119.636 C 79.830 119.298, 83.364 119.017, 85.643 119.011 C 88.500 119.003, 89.975 118.507, 90.396 117.410 C 91.502 114.527, 89.984 114, 80.580 114 L 71.278 114 69.139 108.411 C 67.962 105.337, 67 102.219, 67 101.482 C 67 99.723, 64.234 97, 62.448 97 C 61.672 97, 60.770 98.069, 60.442 99.376 M 194 110.162 C 187.177 116.349, 178.725 121.791, 168.623 126.501 C 156.093 132.343, 151.654 133.298, 135.500 133.627 L 121.500 133.912 120.696 143.706 C 119.778 154.895, 120.601 188.314, 122.092 200.384 C 124.776 222.109, 129.603 239.257, 137.668 255.715 C 142.057 264.670, 144.510 268.297, 149.843 273.715 C 157.980 281.982, 166.371 287.325, 176.702 290.819 C 183.885 293.248, 185.761 293.451, 200.500 293.395 C 214.835 293.341, 217.296 293.072, 224.151 290.806 C 233.925 287.577, 245.950 279.978, 251.986 273.217 C 261.979 262.024, 271.004 239.253, 275.059 215 C 276.728 205.017, 277.247 196.561, 277.635 173 C 277.902 156.775, 277.745 141.475, 277.285 139 L 276.450 134.500 262.975 133.839 C 255.564 133.475, 246.800 132.454, 243.500 131.569 C 233.507 128.890, 216.307 119.726, 207.754 112.523 C 203.494 108.935, 199.669 106.018, 199.254 106.041 C 198.839 106.064, 196.475 107.918, 194 110.162 M 190.537 123.206 C 179.343 133.218, 168.247 138.349, 154.179 140.018 C 148.432 140.700, 141.164 140.938, 137.779 140.555 C 133.238 140.041, 131.489 140.200, 130.865 141.183 C 129.662 143.082, 129.808 185.059, 131.061 197.211 C 133.060 216.609, 138.526 238.137, 144.427 249.854 C 149.185 259.302, 163.099 273.482, 171.523 277.467 C 177.541 280.314, 191.326 282.986, 200 282.986 C 208.994 282.986, 222.854 280.257, 229.386 277.200 C 238.713 272.835, 250.543 260.662, 255.944 249.873 C 258.175 245.415, 260 240.666, 260 239.318 C 260 237.971, 260.436 236.053, 260.970 235.057 C 261.503 234.060, 262.840 229.027, 263.940 223.872 C 267.969 204.997, 269.479 183.167, 268.460 158.547 L 267.733 141 259.617 140.996 C 237.895 140.985, 222.338 135.574, 208.191 123.108 C 203.755 119.199, 199.759 116.019, 199.313 116.042 C 198.866 116.065, 194.917 119.289, 190.537 123.206 M 193.474 124.301 C 190.710 126.611, 187.465 129.417, 186.263 130.538 C 183.150 133.442, 171.842 138.459, 162.559 141.054 C 156.770 142.673, 151.713 143.298, 143.894 143.360 L 133.169 143.446 132.457 154.853 C 131.570 169.039, 132.611 189.752, 135 205.500 C 139.782 237.011, 144.996 250.086, 158.173 263.606 C 163.362 268.929, 168.034 272.673, 171.786 274.515 C 188.874 282.899, 210.406 283.082, 227.912 274.992 C 237.160 270.719, 248.689 258.570, 254.004 247.500 C 258.782 237.547, 260.179 232.217, 263.642 210.721 C 265.339 200.188, 266.614 160.559, 265.570 150.810 L 264.873 144.296 254.686 143.660 C 243.566 142.966, 228.649 139.340, 220.458 135.341 C 217.684 133.987, 212.059 129.996, 207.958 126.473 C 203.856 122.949, 200.050 120.075, 199.500 120.085 C 198.950 120.095, 196.238 121.992, 193.474 124.301 M 349.500 122.011 C 348.400 122.510, 341.650 125.326, 334.500 128.268 C 323.541 132.777, 321.555 133.921, 321.850 135.558 C 322.540 139.386, 324.983 139.299, 334 135.126 C 341.515 131.649, 341.526 132.680, 334.054 140.153 C 328.996 145.211, 326.989 147.920, 327.200 149.403 C 327.479 151.351, 328.280 151.535, 338.500 152 L 349.500 152.500 346 154.166 C 344.075 155.082, 340.250 156.690, 337.500 157.740 C 332.498 159.650, 331.238 161.314, 332.874 163.853 C 333.582 164.953, 335.407 164.631, 342.623 162.137 C 359.683 156.241, 365.534 153.448, 365.155 151.382 C 364.412 147.331, 363.219 147, 349.378 147 C 342.020 147, 336 146.668, 336 146.262 C 336 145.856, 340.524 141.236, 346.054 135.996 C 355.256 127.277, 356.031 126.258, 355.192 123.984 C 354.173 121.227, 352.503 120.647, 349.500 122.011 M 191.211 130.436 C 179.774 140.388, 163.120 146.313, 146.741 146.258 C 137.236 146.226, 136.966 146.289, 136.374 148.648 C 135.043 153.950, 136.750 196.410, 138.861 210.500 C 141.192 226.055, 142.357 230.420, 146.786 240.189 C 150.837 249.123, 154.698 254.560, 162.001 261.618 C 172.585 271.848, 183.557 276, 200 276 C 217.514 276, 229.574 271.244, 240.340 260.093 C 250.712 249.349, 258.040 232.236, 260.084 213.984 C 261.327 202.885, 262.498 152.121, 261.594 148.519 C 261.071 146.433, 260.542 146.142, 258.147 146.621 C 252.888 147.672, 237.466 145.082, 227.495 141.473 C 215.043 136.965, 214.730 136.789, 206.866 129.852 C 203.218 126.633, 199.843 124.021, 199.366 124.047 C 198.890 124.073, 195.220 126.948, 191.211 130.436 M 43.515 128.328 C 43.315 128.972, 42.596 131.298, 41.917 133.496 C 41.238 135.693, 39.654 139.518, 38.396 141.996 C 37.139 144.473, 36.490 146.882, 36.955 147.350 C 37.962 148.363, 63.520 158.969, 66.750 159.714 C 68.155 160.038, 69 159.766, 69 158.991 C 69 158.307, 70.621 153.697, 72.602 148.746 C 75.502 141.497, 75.940 139.574, 74.852 138.873 C 72.166 137.143, 70.631 138.614, 68.520 144.938 C 67.338 148.479, 65.879 151.540, 65.279 151.740 C 63.517 152.328, 56.999 149.222, 57.010 147.801 C 57.015 147.085, 58.157 144.057, 59.546 141.072 C 61.760 136.315, 61.892 135.464, 60.614 134.185 C 58.310 131.881, 56.681 133.306, 54.099 139.884 C 51.447 146.643, 49.274 147.662, 44.960 144.169 L 42.699 142.338 45.349 136.548 C 46.807 133.364, 48 130.190, 48 129.496 C 48 127.846, 43.987 126.801, 43.515 128.328 M 196.496 146.355 C 195.725 148.200, 193.520 151.092, 191.597 152.781 C 187.506 156.372, 181.789 166.535, 182.209 169.468 C 182.452 171.167, 183.238 171.500, 187 171.500 C 191.490 171.500, 191.501 171.491, 192.061 167.500 C 193.117 159.975, 197.725 153.706, 200.784 155.635 C 203.802 157.539, 206.358 161.946, 206.930 166.230 L 207.500 170.500 212.250 170.805 C 216.800 171.097, 217 170.998, 217 168.456 C 217 164.236, 213.979 158.910, 208.408 153.308 C 205.569 150.452, 202.957 146.964, 202.604 145.558 C 201.643 141.730, 198.243 142.174, 196.496 146.355 M 31.672 162.148 C 31.338 163.422, 31.394 164.794, 31.795 165.195 C 32.453 165.853, 47.950 167.972, 52.250 167.992 C 56.764 168.013, 53.766 170.364, 36.234 180.549 C 26.600 186.147, 25.209 190.977, 33.219 191.026 C 35.573 191.040, 43.125 191.888, 50 192.911 C 56.875 193.933, 62.578 194.706, 62.674 194.627 C 62.770 194.549, 62.995 193.138, 63.174 191.493 C 63.494 188.558, 63.394 188.487, 58 187.849 C 54.975 187.491, 49.618 187.153, 46.095 187.099 C 39.759 187.001, 39.709 186.979, 41.497 185.003 C 42.491 183.904, 48.074 180.248, 53.902 176.878 C 64.952 170.489, 67 168.771, 67 165.888 C 67 164.480, 65.748 164.047, 60.250 163.556 C 53.682 162.968, 41.677 161.424, 35.389 160.357 C 32.758 159.911, 32.184 160.187, 31.672 162.148 M 362 163.713 C 359.304 164.031, 356.955 165.650, 351.772 170.764 C 345.796 176.661, 344.510 177.465, 340.272 177.952 C 335.589 178.490, 335.500 178.566, 335.500 182 L 335.500 185.500 341 185.184 C 345.752 184.911, 347.539 185.395, 354.140 188.742 C 360.838 192.139, 362.379 192.548, 366.640 192.058 C 371.008 191.556, 371.500 191.247, 371.500 189 C 371.500 186.641, 371.133 186.472, 365 186 C 360.199 185.631, 357.650 184.863, 355.250 183.062 C 353.462 181.721, 352 180.417, 352 180.165 C 352 179.913, 353.595 177.760, 355.543 175.382 C 358.611 171.638, 359.759 170.968, 364.097 170.393 C 368.980 169.745, 369.099 169.650, 368.803 166.622 C 368.480 163.312, 367.817 163.028, 362 163.713 M 182.330 178.643 C 182.655 180.647, 183.917 183.347, 185.135 184.643 C 187.237 186.882, 187.994 187, 200.189 187 L 213.029 187 215.011 183.750 C 216.101 181.963, 216.994 179.262, 216.996 177.750 L 217 175 199.369 175 L 181.738 175 182.330 178.643 M 329.252 184.500 C 329.263 186.700, 329.468 187.482, 329.707 186.238 C 329.946 184.994, 329.937 183.194, 329.687 182.238 C 329.437 181.282, 329.241 182.300, 329.252 184.500 M 69.378 200 C 69.378 206.325, 69.541 208.912, 69.739 205.750 C 69.937 202.588, 69.937 197.412, 69.739 194.250 C 69.541 191.088, 69.378 193.675, 69.378 200 M 187.180 191.250 C 187.474 193.315, 188.097 193.524, 194.750 193.794 L 202 194.088 202 201.092 C 202 207.110, 202.325 208.405, 204.313 210.298 C 207.216 213.062, 208.082 221.371, 205.567 222.336 C 204.433 222.771, 204 224.321, 204 227.950 C 204 232.500, 203.763 233.021, 201.427 233.608 C 198.113 234.439, 196.985 233.230, 196.814 228.664 C 196.737 226.635, 196.073 224.476, 195.338 223.865 C 194.555 223.216, 194 220.730, 194 217.878 C 194 214.209, 193.628 213, 192.500 213 C 191.483 213, 191 211.982, 191 209.838 C 191 208.099, 190.258 204.322, 189.351 201.445 C 187.834 196.633, 187.413 196.166, 184.101 195.618 C 177.856 194.585, 172.523 194.946, 170.223 196.557 C 167.821 198.239, 167.221 200.990, 169.250 201.015 C 170.230 201.027, 170.235 201.199, 169.273 201.810 C 168.370 202.384, 168.106 206.928, 168.273 219.045 L 168.500 235.500 171 235.012 C 174.307 234.367, 183.168 234.580, 190 235.470 C 194.185 236.015, 196.030 236.815, 197.717 238.818 L 199.933 241.449 201.994 239.237 C 203.128 238.020, 205.280 236.768, 206.778 236.456 C 208.275 236.143, 211.397 235.408, 213.715 234.823 C 216.167 234.205, 220.639 234.050, 224.404 234.453 L 230.878 235.146 230.853 217.323 C 230.839 207.520, 230.611 198.713, 230.346 197.750 C 229.935 196.255, 228.603 196, 221.214 196 C 213.091 196, 212.424 196.162, 210.282 198.656 L 208 201.311 208 197.764 C 208 194.814, 208.421 194.111, 210.500 193.589 C 212.114 193.184, 213 192.260, 213 190.981 C 213 189.107, 212.291 189, 199.930 189 C 186.949 189, 186.863 189.015, 187.180 191.250 M 235.990 206.006 C 235.163 206.517, 235.046 211.268, 235.565 223.270 C 235.958 232.378, 236.019 240.507, 235.702 241.335 C 235.193 242.662, 234.561 242.672, 230.403 241.421 C 227.806 240.639, 223.124 240, 219.998 240 C 214.630 240, 204.116 242.829, 201.541 244.966 C 200.749 245.624, 199.200 245.319, 196.804 244.035 C 187.244 238.911, 177.638 238.099, 167.770 241.581 L 164 242.911 164 224.392 L 164 205.873 160.750 206.187 L 157.500 206.500 157.232 230.250 C 157.021 248.914, 157.235 253.995, 158.232 253.978 C 158.929 253.966, 161.525 253.034, 164 251.907 C 170.538 248.929, 183.033 247.487, 192.614 248.602 C 196.977 249.111, 202.336 249.209, 204.523 248.821 C 214.902 246.979, 230.282 248.660, 237.502 252.424 C 239.151 253.284, 240.838 253.990, 241.250 253.994 C 241.662 253.997, 242 243.252, 242 230.117 L 242 206.233 239.565 205.768 C 238.225 205.512, 236.616 205.619, 235.990 206.006 M 329.232 213 C 329.232 214.925, 329.438 215.713, 329.689 214.750 C 329.941 213.787, 329.941 212.213, 329.689 211.250 C 329.438 210.287, 329.232 211.075, 329.232 213 M 170.358 258.511 C 169.407 260.989, 172.571 263.760, 174.769 262.374 C 175.721 261.773, 176.500 260.431, 176.500 259.391 C 176.500 256.868, 171.275 256.119, 170.358 258.511 M 223.479 258.392 C 221.862 259.574, 221.776 260.025, 222.910 261.392 C 223.644 262.276, 225.035 263, 226 263 C 226.965 263, 228.356 262.276, 229.090 261.392 C 230.224 260.025, 230.138 259.574, 228.521 258.392 C 227.474 257.626, 226.340 257, 226 257 C 225.660 257, 224.526 257.626, 223.479 258.392 M 198.464 259.250 C 198.091 260.212, 196.934 261, 195.893 261 C 194.852 261, 194 261.450, 194 262 C 194 262.550, 194.450 263, 195 263 C 195.550 263, 196 264.195, 196 265.655 C 196 268.238, 196.054 268.262, 197.981 266.517 C 199.603 265.050, 200.238 264.953, 201.481 265.984 C 202.769 267.053, 203 266.876, 203 264.822 C 203 263.490, 203.563 261.833, 204.250 261.141 C 205.252 260.131, 205.144 260.017, 203.702 260.566 C 202.518 261.017, 201.433 260.611, 200.523 259.375 C 199.228 257.615, 199.101 257.608, 198.464 259.250" stroke="none" fill="#100f2e" fill-rule="evenodd"/><path d="M 201.006 43.173 C 196.603 52.141, 193 60.045, 193 60.739 C 193 61.475, 194.256 62, 196.016 62 C 198.479 62, 199.339 61.357, 200.701 58.500 C 202.513 54.701, 203.585 54.433, 212.238 55.619 C 216.437 56.195, 216.837 56.511, 217.918 60.119 C 218.968 63.627, 219.404 64, 222.441 64 L 225.802 64 222.947 54.750 C 214.329 26.827, 214.613 27.525, 211.708 27.184 C 209.146 26.884, 208.616 27.676, 201.006 43.173 M 240.023 35.691 C 238.018 36.734, 235.266 39.586, 233.523 42.426 C 230.955 46.611, 230.500 48.352, 230.503 54.003 C 230.507 64.795, 235.399 69.976, 245.601 69.994 C 249.679 70.002, 255.004 68.105, 254.985 66.652 C 254.944 63.555, 253.318 62.740, 249.615 63.962 C 241.510 66.637, 236 62.362, 236 53.400 C 236 48.903, 236.469 47.535, 239.001 44.651 C 243.731 39.265, 249.153 39.107, 254.841 44.192 C 257.467 46.539, 258.011 46.692, 259.098 45.382 C 260.765 43.373, 259.275 39.281, 255.986 36.833 C 252.229 34.037, 244.294 33.469, 240.023 35.691 M 144 36.729 C 141.470 37.692, 141.031 39.217, 141.015 47.096 C 141.007 51.274, 140.711 58.761, 140.358 63.734 L 139.716 72.775 135.108 70.045 C 130.698 67.433, 130.513 67.140, 130.810 63.224 C 131.350 56.100, 125.841 49, 119.774 49 C 117.149 49, 100.992 57.600, 101.005 58.989 C 101.008 59.270, 103.946 64, 107.536 69.500 C 111.125 75, 114.326 80.625, 114.650 82 C 114.973 83.375, 115.863 85.501, 116.626 86.725 C 117.831 88.658, 118.342 88.801, 120.507 87.815 C 123.644 86.385, 123.643 84.840, 120.500 80.215 C 117.249 75.431, 117.337 74.672, 121.388 72.490 L 124.776 70.666 129.772 74.333 C 135.496 78.535, 136.100 78.648, 139.790 76.210 C 141.281 75.225, 143.400 73.942, 144.500 73.359 C 145.811 72.663, 146.605 71.065, 146.806 68.717 C 147.101 65.267, 147.345 65.062, 153.515 63.069 C 161.679 60.431, 161.653 60.429, 163.526 64.051 C 164.794 66.502, 165.536 66.971, 167.302 66.438 C 171.207 65.260, 171.400 64.209, 168.404 60.433 C 166.807 58.421, 164.519 55.311, 163.320 53.522 C 160.138 48.772, 147.881 35.987, 146.598 36.079 C 145.994 36.122, 144.825 36.415, 144 36.729 M 207.706 42.528 C 206.218 45.562, 205 48.220, 205 48.434 C 205 49.343, 213.272 50.128, 214.101 49.299 C 214.959 48.441, 212.609 39.484, 211.073 37.756 C 210.709 37.346, 209.194 39.494, 207.706 42.528 M 147 52 C 147 56.145, 147.421 59, 148.032 59 C 150.399 59, 156 55.999, 156 54.731 C 156 53.115, 149.263 45, 147.922 45 C 147.415 45, 147 48.150, 147 52 M 270.915 56.433 C 265.187 61.071, 258.753 66.381, 256.619 68.232 L 252.737 71.598 255.268 73.256 C 257.693 74.845, 257.912 74.811, 260.451 72.457 C 261.910 71.106, 263.381 70, 263.721 70 C 264.888 70, 275.500 76.271, 276.218 77.385 C 276.613 77.998, 276.684 80.089, 276.375 82.031 C 275.889 85.092, 276.159 85.747, 278.406 86.950 C 279.831 87.712, 281.269 88.065, 281.601 87.732 C 281.933 87.400, 282.841 81.362, 283.619 74.314 C 284.397 67.266, 285.321 59.070, 285.672 56.100 C 286.211 51.545, 286.022 50.489, 284.464 49.350 C 283.449 48.608, 282.328 48, 281.974 48 C 281.619 48, 276.643 51.795, 270.915 56.433 M 113.250 57.115 C 109.351 59.612, 109.202 61.362, 112.477 66.180 C 115.218 70.215, 117.150 70.333, 122.250 66.780 C 125.721 64.361, 125.836 60.745, 122.545 57.455 C 119.560 54.469, 117.500 54.393, 113.250 57.115 M 274.500 61.073 C 271.750 63.343, 269.356 65.586, 269.181 66.057 C 268.845 66.960, 275.306 70, 277.561 70 C 278.959 70, 280.436 62.955, 279.840 59.130 C 279.521 57.079, 279.196 57.197, 274.500 61.073 M 294.716 76.572 C 288.547 82.937, 283.500 88.693, 283.500 89.364 C 283.500 90.034, 286.566 93.362, 290.314 96.758 C 299.474 105.059, 304.320 105.954, 312.017 100.767 C 317.790 96.877, 322 90.478, 322 85.594 C 322 80.314, 317.435 72.978, 311.849 69.281 C 309.732 67.880, 308 66.344, 308 65.867 C 308 63.539, 305.020 65.941, 294.716 76.572 M 179.250 70.689 C 180.213 70.941, 181.787 70.941, 182.750 70.689 C 183.713 70.438, 182.925 70.232, 181 70.232 C 179.075 70.232, 178.287 70.438, 179.250 70.689 M 217.269 70.693 C 218.242 70.947, 219.592 70.930, 220.269 70.656 C 220.946 70.382, 220.150 70.175, 218.500 70.195 C 216.850 70.215, 216.296 70.439, 217.269 70.693 M 84.459 72.880 C 71.493 78.769, 70.539 94.445, 82.587 103.634 C 85.843 106.117, 87.223 106.500, 92.922 106.500 C 98.213 106.500, 100.141 106.043, 102.773 104.166 C 106.735 101.339, 110.008 95.264, 109.978 90.790 C 109.928 83.260, 103.859 75.273, 96.110 72.539 C 90.596 70.593, 89.416 70.628, 84.459 72.880 M 298.818 81.053 C 294.793 85.483, 291.368 89.479, 291.206 89.935 C 291.045 90.390, 292.814 92.268, 295.137 94.109 C 301.598 99.226, 305.856 98.852, 311.711 92.656 C 315.905 88.217, 316.204 87.555, 315.701 83.808 C 315.150 79.698, 309.988 73, 307.372 73 C 306.692 73, 302.843 76.624, 298.818 81.053 M 179.500 77.490 C 163.644 79.988, 140.816 89.329, 127.438 98.792 C 119.212 104.612, 103.896 119.942, 97.919 128.338 C 93.358 134.746, 87.143 146.889, 83.250 157 C 79.228 167.448, 77.132 176.679, 75.873 189.500 C 73.765 210.958, 77.985 232.575, 88.579 254.578 C 94.792 267.482, 99.487 273.955, 111.524 286.208 C 123.389 298.286, 126.484 300.630, 140.055 307.816 C 160.781 318.789, 172.766 322.003, 195.500 322.682 C 210.282 323.124, 213.870 322.910, 223 321.040 C 234.521 318.681, 251.263 312.487, 258.465 307.920 C 260.998 306.314, 263.433 305, 263.878 305 C 266.069 305, 279.577 294.230, 287.254 286.362 C 298.926 274.399, 303.204 268.474, 309.532 255.500 C 319.974 234.091, 322.507 223.040, 322.478 199 C 322.454 179.158, 321.239 171.901, 315.500 157.326 C 305.945 133.060, 294.711 117.623, 275.117 101.840 C 267.016 95.314, 248.362 85.682, 235.752 81.513 C 220.075 76.331, 197.229 74.697, 179.500 77.490 M 83.700 80.573 C 80.100 84.173, 79.432 88.177, 81.670 92.741 C 85.473 100.498, 94.181 103.243, 99.850 98.473 C 103.579 95.335, 104.565 91.289, 102.693 86.807 C 99.188 78.418, 89.150 75.123, 83.700 80.573 M 330 95.163 C 328.075 96.790, 322.113 101.101, 316.750 104.743 C 310.910 108.708, 307 112.037, 307 113.044 C 307 113.969, 308.394 116.474, 310.098 118.612 C 311.801 120.751, 314.319 124.412, 315.693 126.750 C 318.467 131.471, 318.365 131.410, 321.066 129.965 C 323.796 128.503, 323.558 127.673, 318.586 121.339 C 316.158 118.246, 314.368 115.217, 314.608 114.608 C 314.848 113.998, 316.593 112.494, 318.486 111.264 L 321.929 109.028 326.214 114.458 C 330.648 120.076, 331.826 120.774, 333.706 118.894 C 334.514 118.086, 333.700 116.168, 330.685 111.776 L 326.559 105.763 329.530 103.387 C 331.163 102.080, 332.950 101.155, 333.500 101.331 C 334.050 101.507, 336.207 104.092, 338.294 107.075 C 342.375 112.912, 344.008 113.900, 345.869 111.657 C 346.826 110.505, 345.864 108.559, 340.893 101.591 C 337.504 96.839, 334.454 92.784, 334.116 92.578 C 333.777 92.372, 331.925 93.535, 330 95.163 M 60.442 99.376 C 60.046 100.954, 60.862 103.765, 62.876 107.755 C 64.543 111.058, 65.628 114.038, 65.287 114.380 C 64.946 114.721, 61.422 115, 57.456 115 C 52.050 115, 49.911 115.403, 48.910 116.608 C 46.454 119.567, 50.360 121.115, 59.454 120.787 L 67.423 120.500 70.241 127.453 C 71.790 131.277, 73.822 135.251, 74.756 136.282 C 76.411 138.112, 76.496 138.105, 78.205 135.995 C 80.104 133.650, 80.317 134.622, 75.434 123.375 L 74.077 120.249 77.789 119.636 C 79.830 119.298, 83.364 119.017, 85.643 119.011 C 88.500 119.003, 89.975 118.507, 90.396 117.410 C 91.502 114.527, 89.984 114, 80.580 114 L 71.278 114 69.139 108.411 C 67.962 105.337, 67 102.219, 67 101.482 C 67 99.723, 64.234 97, 62.448 97 C 61.672 97, 60.770 98.069, 60.442 99.376 M 194 110.162 C 187.177 116.349, 178.725 121.791, 168.623 126.501 C 156.093 132.343, 151.654 133.298, 135.500 133.627 L 121.500 133.912 120.696 143.706 C 119.778 154.895, 120.601 188.314, 122.092 200.384 C 124.776 222.109, 129.603 239.257, 137.668 255.715 C 142.057 264.670, 144.510 268.297, 149.843 273.715 C 157.980 281.982, 166.371 287.325, 176.702 290.819 C 183.885 293.248, 185.761 293.451, 200.500 293.395 C 214.835 293.341, 217.296 293.072, 224.151 290.806 C 233.925 287.577, 245.950 279.978, 251.986 273.217 C 261.979 262.024, 271.004 239.253, 275.059 215 C 276.728 205.017, 277.247 196.561, 277.635 173 C 277.902 156.775, 277.745 141.475, 277.285 139 L 276.450 134.500 262.975 133.839 C 255.564 133.475, 246.800 132.454, 243.500 131.569 C 233.507 128.890, 216.307 119.726, 207.754 112.523 C 203.494 108.935, 199.669 106.018, 199.254 106.041 C 198.839 106.064, 196.475 107.918, 194 110.162 M 190.537 123.206 C 179.343 133.218, 168.247 138.349, 154.179 140.018 C 148.432 140.700, 141.164 140.938, 137.779 140.555 C 133.238 140.041, 131.489 140.200, 130.865 141.183 C 129.662 143.082, 129.808 185.059, 131.061 197.211 C 133.060 216.609, 138.526 238.137, 144.427 249.854 C 149.185 259.302, 163.099 273.482, 171.523 277.467 C 177.541 280.314, 191.326 282.986, 200 282.986 C 208.994 282.986, 222.854 280.257, 229.386 277.200 C 238.713 272.835, 250.543 260.662, 255.944 249.873 C 258.175 245.415, 260 240.666, 260 239.318 C 260 237.971, 260.436 236.053, 260.970 235.057 C 261.503 234.060, 262.840 229.027, 263.940 223.872 C 267.969 204.997, 269.479 183.167, 268.460 158.547 L 267.733 141 259.617 140.996 C 237.895 140.985, 222.338 135.574, 208.191 123.108 C 203.755 119.199, 199.759 116.019, 199.313 116.042 C 198.866 116.065, 194.917 119.289, 190.537 123.206 M 193.474 124.301 C 190.710 126.611, 187.465 129.417, 186.263 130.538 C 183.150 133.442, 171.842 138.459, 162.559 141.054 C 156.770 142.673, 151.713 143.298, 143.894 143.360 L 133.169 143.446 132.457 154.853 C 131.570 169.039, 132.611 189.752, 135 205.500 C 139.782 237.011, 144.996 250.086, 158.173 263.606 C 163.362 268.929, 168.034 272.673, 171.786 274.515 C 188.874 282.899, 210.406 283.082, 227.912 274.992 C 237.160 270.719, 248.689 258.570, 254.004 247.500 C 258.782 237.547, 260.179 232.217, 263.642 210.721 C 265.339 200.188, 266.614 160.559, 265.570 150.810 L 264.873 144.296 254.686 143.660 C 243.566 142.966, 228.649 139.340, 220.458 135.341 C 217.684 133.987, 212.059 129.996, 207.958 126.473 C 203.856 122.949, 200.050 120.075, 199.500 120.085 C 198.950 120.095, 196.238 121.992, 193.474 124.301 M 349.500 122.011 C 348.400 122.510, 341.650 125.326, 334.500 128.268 C 323.541 132.777, 321.555 133.921, 321.850 135.558 C 322.540 139.386, 324.983 139.299, 334 135.126 C 341.515 131.649, 341.526 132.680, 334.054 140.153 C 328.996 145.211, 326.989 147.920, 327.200 149.403 C 327.479 151.351, 328.280 151.535, 338.500 152 L 349.500 152.500 346 154.166 C 344.075 155.082, 340.250 156.690, 337.500 157.740 C 332.498 159.650, 331.238 161.314, 332.874 163.853 C 333.582 164.953, 335.407 164.631, 342.623 162.137 C 359.683 156.241, 365.534 153.448, 365.155 151.382 C 364.412 147.331, 363.219 147, 349.378 147 C 342.020 147, 336 146.668, 336 146.262 C 336 145.856, 340.524 141.236, 346.054 135.996 C 355.256 127.277, 356.031 126.258, 355.192 123.984 C 354.173 121.227, 352.503 120.647, 349.500 122.011 M 191.211 130.436 C 179.774 140.388, 163.120 146.313, 146.741 146.258 C 137.236 146.226, 136.966 146.289, 136.374 148.648 C 135.043 153.950, 136.750 196.410, 138.861 210.500 C 141.192 226.055, 142.357 230.420, 146.786 240.189 C 150.837 249.123, 154.698 254.560, 162.001 261.618 C 172.585 271.848, 183.557 276, 200 276 C 217.514 276, 229.574 271.244, 240.340 260.093 C 250.712 249.349, 258.040 232.236, 260.084 213.984 C 261.327 202.885, 262.498 152.121, 261.594 148.519 C 261.071 146.433, 260.542 146.142, 258.147 146.621 C 252.888 147.672, 237.466 145.082, 227.495 141.473 C 215.043 136.965, 214.730 136.789, 206.866 129.852 C 203.218 126.633, 199.843 124.021, 199.366 124.047 C 198.890 124.073, 195.220 126.948, 191.211 130.436 M 43.515 128.328 C 43.315 128.972, 42.596 131.298, 41.917 133.496 C 41.238 135.693, 39.654 139.518, 38.396 141.996 C 37.139 144.473, 36.490 146.882, 36.955 147.350 C 37.962 148.363, 63.520 158.969, 66.750 159.714 C 68.155 160.038, 69 159.766, 69 158.991 C 69 158.307, 70.621 153.697, 72.602 148.746 C 75.502 141.497, 75.940 139.574, 74.852 138.873 C 72.166 137.143, 70.631 138.614, 68.520 144.938 C 67.338 148.479, 65.879 151.540, 65.279 151.740 C 63.517 152.328, 56.999 149.222, 57.010 147.801 C 57.015 147.085, 58.157 144.057, 59.546 141.072 C 61.760 136.315, 61.892 135.464, 60.614 134.185 C 58.310 131.881, 56.681 133.306, 54.099 139.884 C 51.447 146.643, 49.274 147.662, 44.960 144.169 L 42.699 142.338 45.349 136.548 C 46.807 133.364, 48 130.190, 48 129.496 C 48 127.846, 43.987 126.801, 43.515 128.328 M 196.496 146.355 C 195.725 148.200, 193.520 151.092, 191.597 152.781 C 187.506 156.372, 181.789 166.535, 182.209 169.468 C 182.452 171.167, 183.238 171.500, 187 171.500 C 191.490 171.500, 191.501 171.491, 192.061 167.500 C 193.117 159.975, 197.725 153.706, 200.784 155.635 C 203.802 157.539, 206.358 161.946, 206.930 166.230 L 207.500 170.500 212.250 170.805 C 216.800 171.097, 217 170.998, 217 168.456 C 217 164.236, 213.979 158.910, 208.408 153.308 C 205.569 150.452, 202.957 146.964, 202.604 145.558 C 201.643 141.730, 198.243 142.174, 196.496 146.355 M 31.672 162.148 C 31.338 163.422, 31.394 164.794, 31.795 165.195 C 32.453 165.853, 47.950 167.972, 52.250 167.992 C 56.764 168.013, 53.766 170.364, 36.234 180.549 C 26.600 186.147, 25.209 190.977, 33.219 191.026 C 35.573 191.040, 43.125 191.888, 50 192.911 C 56.875 193.933, 62.578 194.706, 62.674 194.627 C 62.770 194.549, 62.995 193.138, 63.174 191.493 C 63.494 188.558, 63.394 188.487, 58 187.849 C 54.975 187.491, 49.618 187.153, 46.095 187.099 C 39.759 187.001, 39.709 186.979, 41.497 185.003 C 42.491 183.904, 48.074 180.248, 53.902 176.878 C 64.952 170.489, 67 168.771, 67 165.888 C 67 164.480, 65.748 164.047, 60.250 163.556 C 53.682 162.968, 41.677 161.424, 35.389 160.357 C 32.758 159.911, 32.184 160.187, 31.672 162.148 M 362 163.713 C 359.304 164.031, 356.955 165.650, 351.772 170.764 C 345.796 176.661, 344.510 177.465, 340.272 177.952 C 335.589 178.490, 335.500 178.566, 335.500 182 L 335.500 185.500 341 185.184 C 345.752 184.911, 347.539 185.395, 354.140 188.742 C 360.838 192.139, 362.379 192.548, 366.640 192.058 C 371.008 191.556, 371.500 191.247, 371.500 189 C 371.500 186.641, 371.133 186.472, 365 186 C 360.199 185.631, 357.650 184.863, 355.250 183.062 C 353.462 181.721, 352 180.417, 352 180.165 C 352 179.913, 353.595 177.760, 355.543 175.382 C 358.611 171.638, 359.759 170.968, 364.097 170.393 C 368.980 169.745, 369.099 169.650, 368.803 166.622 C 368.480 163.312, 367.817 163.028, 362 163.713 M 182.330 178.643 C 182.655 180.647, 183.917 183.347, 185.135 184.643 C 187.237 186.882, 187.994 187, 200.189 187 L 213.029 187 215.011 183.750 C 216.101 181.963, 216.994 179.262, 216.996 177.750 L 217 175 199.369 175 L 181.738 175 182.330 178.643 M 329.252 184.500 C 329.263 186.700, 329.468 187.482, 329.707 186.238 C 329.946 184.994, 329.937 183.194, 329.687 182.238 C 329.437 181.282, 329.241 182.300, 329.252 184.500 M 69.378 200 C 69.378 206.325, 69.541 208.912, 69.739 205.750 C 69.937 202.588, 69.937 197.412, 69.739 194.250 C 69.541 191.088, 69.378 193.675, 69.378 200 M 187.180 191.250 C 187.474 193.315, 188.097 193.524, 194.750 193.794 L 202 194.088 202 201.092 C 202 207.110, 202.325 208.405, 204.313 210.298 C 207.216 213.062, 208.082 221.371, 205.567 222.336 C 204.433 222.771, 204 224.321, 204 227.950 C 204 232.500, 203.763 233.021, 201.427 233.608 C 198.113 234.439, 196.985 233.230, 196.814 228.664 C 196.737 226.635, 196.073 224.476, 195.338 223.865 C 194.555 223.216, 194 220.730, 194 217.878 C 194 214.209, 193.628 213, 192.500 213 C 191.483 213, 191 211.982, 191 209.838 C 191 208.099, 190.258 204.322, 189.351 201.445 C 187.834 196.633, 187.413 196.166, 184.101 195.618 C 177.856 194.585, 172.523 194.946, 170.223 196.557 C 167.821 198.239, 167.221 200.990, 169.250 201.015 C 170.230 201.027, 170.235 201.199, 169.273 201.810 C 168.370 202.384, 168.106 206.928, 168.273 219.045 L 168.500 235.500 171 235.012 C 174.307 234.367, 183.168 234.580, 190 235.470 C 194.185 236.015, 196.030 236.815, 197.717 238.818 L 199.933 241.449 201.994 239.237 C 203.128 238.020, 205.280 236.768, 206.778 236.456 C 208.275 236.143, 211.397 235.408, 213.715 234.823 C 216.167 234.205, 220.639 234.050, 224.404 234.453 L 230.878 235.146 230.853 217.323 C 230.839 207.520, 230.611 198.713, 230.346 197.750 C 229.935 196.255, 228.603 196, 221.214 196 C 213.091 196, 212.424 196.162, 210.282 198.656 L 208 201.311 208 197.764 C 208 194.814, 208.421 194.111, 210.500 193.589 C 212.114 193.184, 213 192.260, 213 190.981 C 213 189.107, 212.291 189, 199.930 189 C 186.949 189, 186.863 189.015, 187.180 191.250 M 235.990 206.006 C 235.163 206.517, 235.046 211.268, 235.565 223.270 C 235.958 232.378, 236.019 240.507, 235.702 241.335 C 235.193 242.662, 234.561 242.672, 230.403 241.421 C 227.806 240.639, 223.124 240, 219.998 240 C 214.630 240, 204.116 242.829, 201.541 244.966 C 200.749 245.624, 199.200 245.319, 196.804 244.035 C 187.244 238.911, 177.638 238.099, 167.770 241.581 L 164 242.911 164 224.392 L 164 205.873 160.750 206.187 L 157.500 206.500 157.232 230.250 C 157.021 248.914, 157.235 253.995, 158.232 253.978 C 158.929 253.966, 161.525 253.034, 164 251.907 C 170.538 248.929, 183.033 247.487, 192.614 248.602 C 196.977 249.111, 202.336 249.209, 204.523 248.821 C 214.902 246.979, 230.282 248.660, 237.502 252.424 C 239.151 253.284, 240.838 253.990, 241.250 253.994 C 241.662 253.997, 242 243.252, 242 230.117 L 242 206.233 239.565 205.768 C 238.225 205.512, 236.616 205.619, 235.990 206.006 M 329.232 213 C 329.232 214.925, 329.438 215.713, 329.689 214.750 C 329.941 213.787, 329.941 212.213, 329.689 211.250 C 329.438 210.287, 329.232 211.075, 329.232 213 M 170.358 258.511 C 169.407 260.989, 172.571 263.760, 174.769 262.374 C 175.721 261.773, 176.500 260.431, 176.500 259.391 C 176.500 256.868, 171.275 256.119, 170.358 258.511 M 223.479 258.392 C 221.862 259.574, 221.776 260.025, 222.910 261.392 C 223.644 262.276, 225.035 263, 226 263 C 226.965 263, 228.356 262.276, 229.090 261.392 C 230.224 260.025, 230.138 259.574, 228.521 258.392 C 227.474 257.626, 226.340 257, 226 257 C 225.660 257, 224.526 257.626, 223.479 258.392 M 198.464 259.250 C 198.091 260.212, 196.934 261, 195.893 261 C 194.852 261, 194 261.450, 194 262 C 194 262.550, 194.450 263, 195 263 C 195.550 263, 196 264.195, 196 265.655 C 196 268.238, 196.054 268.262, 197.981 266.517 C 199.603 265.050, 200.238 264.953, 201.481 265.984 C 202.769 267.053, 203 266.876, 203 264.822 C 203 263.490, 203.563 261.833, 204.250 261.141 C 205.252 260.131, 205.144 260.017, 203.702 260.566 C 202.518 261.017, 201.433 260.611, 200.523 259.375 C 199.228 257.615, 199.101 257.608, 198.464 259.250" stroke="none" fill="#f0f0f1" fill-rule="evenodd"/></svg>